<svg width="83" height="27" viewBox="0 0 83 27" fill="none" xmlns="http://www.w3.org/2000/svg">
<path d="M6.04545 21.2884C5.07102 21.2884 4.20265 21.1193 3.44034 20.7812C2.67803 20.4366 2.07481 19.9295 1.63068 19.2599C1.19318 18.5838 0.974432 17.742 0.974432 16.7344C0.974432 15.8859 1.13021 15.1733 1.44176 14.5966C1.75331 14.0199 2.17756 13.5559 2.71449 13.2045C3.25142 12.8532 3.86127 12.5881 4.54403 12.4091C5.23343 12.2301 5.95597 12.1042 6.71165 12.0312C7.59991 11.9384 8.31581 11.8523 8.85938 11.7727C9.40294 11.6866 9.79735 11.5606 10.0426 11.3949C10.2879 11.2292 10.4105 10.9839 10.4105 10.6591V10.5994C10.4105 9.9697 10.2116 9.48248 9.81392 9.13778C9.42282 8.79309 8.866 8.62074 8.14347 8.62074C7.38116 8.62074 6.77462 8.78977 6.32386 9.12784C5.87311 9.45928 5.57481 9.87689 5.42898 10.3807L1.51136 10.0625C1.71023 9.13447 2.10133 8.33239 2.68466 7.65625C3.26799 6.97348 4.02036 6.44981 4.94176 6.08523C5.86979 5.71401 6.94366 5.52841 8.16335 5.52841C9.01184 5.52841 9.82386 5.62784 10.5994 5.8267C11.3816 6.02557 12.0743 6.33381 12.6776 6.75142C13.2874 7.16903 13.768 7.70597 14.1193 8.36222C14.4706 9.01184 14.6463 9.79072 14.6463 10.6989V21H10.6293V18.8821H10.5099C10.2647 19.3594 9.93655 19.7803 9.52557 20.1449C9.11458 20.5028 8.62074 20.7846 8.04403 20.9901C7.46733 21.1889 6.80114 21.2884 6.04545 21.2884ZM7.25852 18.3651C7.88163 18.3651 8.43182 18.2424 8.90909 17.9972C9.38636 17.7453 9.76089 17.4072 10.0327 16.983C10.3045 16.5587 10.4403 16.0781 10.4403 15.5412V13.9205C10.3078 14.0066 10.1255 14.0862 9.89347 14.1591C9.66809 14.2254 9.41288 14.2884 9.12784 14.348C8.8428 14.401 8.55777 14.4508 8.27273 14.4972C7.98769 14.5369 7.72917 14.5734 7.49716 14.6065C7 14.6795 6.56581 14.7955 6.1946 14.9545C5.82339 15.1136 5.53504 15.3291 5.32955 15.6009C5.12405 15.866 5.02131 16.1974 5.02131 16.5952C5.02131 17.1719 5.23011 17.6127 5.64773 17.9176C6.07197 18.2159 6.6089 18.3651 7.25852 18.3651ZM26.0561 5.72727V8.90909H16.8587V5.72727H26.0561ZM18.9467 2.06818H23.1825V16.3068C23.1825 16.6979 23.2422 17.0028 23.3615 17.2216C23.4808 17.4337 23.6465 17.5829 23.8587 17.669C24.0774 17.7552 24.3293 17.7983 24.6143 17.7983C24.8132 17.7983 25.0121 17.7817 25.2109 17.7486C25.4098 17.7088 25.5623 17.679 25.6683 17.6591L26.3345 20.8111C26.1224 20.8774 25.8241 20.9536 25.4396 21.0398C25.0552 21.1326 24.5878 21.1889 24.0376 21.2088C23.0168 21.2486 22.1219 21.1127 21.353 20.8011C20.5907 20.4896 19.9974 20.0057 19.5732 19.3494C19.1489 18.6932 18.9401 17.8646 18.9467 16.8636V2.06818ZM36.9389 5.72727V8.90909H27.7415V5.72727H36.9389ZM29.8295 2.06818H34.0653V16.3068C34.0653 16.6979 34.125 17.0028 34.2443 17.2216C34.3636 17.4337 34.5294 17.5829 34.7415 17.669C34.9602 17.7552 35.2121 17.7983 35.4972 17.7983C35.696 17.7983 35.8949 17.7817 36.0938 17.7486C36.2926 17.7088 36.4451 17.679 36.5511 17.6591L37.2173 20.8111C37.0052 20.8774 36.7069 20.9536 36.3224 21.0398C35.938 21.1326 35.4706 21.1889 34.9205 21.2088C33.8996 21.2486 33.0047 21.1127 32.2358 20.8011C31.4735 20.4896 30.8802 20.0057 30.456 19.3494C30.0317 18.6932 29.8229 17.8646 29.8295 16.8636V2.06818ZM39.6982 21V5.72727H43.8047V8.39205H43.9638C44.2422 7.44413 44.7095 6.72822 45.3658 6.24432C46.022 5.75379 46.7777 5.50852 47.6328 5.50852C47.8449 5.50852 48.0736 5.52178 48.3189 5.54829C48.5642 5.57481 48.7796 5.61127 48.9652 5.65767V9.41619C48.7663 9.35653 48.4912 9.3035 48.1399 9.2571C47.7886 9.2107 47.4671 9.1875 47.1754 9.1875C46.5523 9.1875 45.9955 9.32339 45.505 9.59517C45.0211 9.86032 44.6366 10.2315 44.3516 10.7088C44.0732 11.1861 43.9339 11.7363 43.9339 12.3594V21H39.6982ZM67.641 21V0.636363H71.8768V8.29261H72.006C72.1916 7.88163 72.4601 7.46401 72.8114 7.03977C73.1694 6.6089 73.6334 6.25095 74.2035 5.96591C74.7802 5.67424 75.4961 5.52841 76.3512 5.52841C77.4648 5.52841 78.4923 5.82008 79.4336 6.40341C80.3749 6.98011 81.1272 7.8518 81.6907 9.01847C82.2541 10.1785 82.5359 11.6335 82.5359 13.3835C82.5359 15.0871 82.2608 16.5256 81.7106 17.6989C81.167 18.8655 80.4246 19.7505 79.4833 20.3537C78.5487 20.9503 77.5013 21.2486 76.3413 21.2486C75.5193 21.2486 74.82 21.1127 74.2433 20.8409C73.6732 20.5691 73.2058 20.2277 72.8413 19.8168C72.4767 19.3991 72.1983 18.9782 72.006 18.554H71.8171V21H67.641ZM71.7873 13.3636C71.7873 14.2718 71.9132 15.0639 72.1651 15.7401C72.417 16.4162 72.7816 16.9432 73.2589 17.321C73.7362 17.6922 74.3162 17.8778 74.9989 17.8778C75.6883 17.8778 76.2717 17.6889 76.7489 17.3111C77.2262 16.9266 77.5875 16.3963 77.8327 15.7202C78.0846 15.0374 78.2106 14.2519 78.2106 13.3636C78.2106 12.482 78.088 11.7064 77.8427 11.0369C77.5974 10.3674 77.2362 9.84375 76.7589 9.46591C76.2816 9.08807 75.695 8.89915 74.9989 8.89915C74.3095 8.89915 73.7262 9.08144 73.2489 9.44602C72.7783 9.81061 72.417 10.3277 72.1651 10.9972C71.9132 11.6667 71.7873 12.4555 71.7873 13.3636Z" fill="#172B4D"/>
<path d="M53.7702 26.7273C53.2333 26.7273 52.7295 26.6842 52.2589 26.598C51.7949 26.5185 51.4104 26.4157 51.1055 26.2898L52.06 23.1278C52.5572 23.2803 53.0046 23.3632 53.4023 23.3764C53.8067 23.3897 54.1547 23.2969 54.4464 23.098C54.7447 22.8991 54.9866 22.5611 55.1722 22.0838L55.4208 21.4375L49.9421 5.72727H54.3967L57.5586 16.9432H57.7177L60.9094 5.72727H65.3938L59.4577 22.6506C59.1727 23.4725 58.7849 24.1884 58.2944 24.7983C57.8105 25.4148 57.1973 25.8887 56.4549 26.2202C55.7125 26.5582 54.8176 26.7273 53.7702 26.7273Z" fill="#6E40FF"/>
</svg>
