<?xml version="1.0" encoding="UTF-8"?>
<svg xmlns="http://www.w3.org/2000/svg" id="Layer_1" viewBox="0 0 789.34 162.23">
  <defs>
    <style>
      .cls-1 {
        fill: #000908;
      }
    </style>
  </defs>
  <path d="m190.51,162.23c-.83,0-1.5-.67-1.5-1.5V1.5c0-.83.67-1.5,1.5-1.5s1.5.67,1.5,1.5v159.23c0,.83-.67,1.5-1.5,1.5Z"/>
  <g>
    <g>
      <path d="m613.78,126.83v7.66h-2.69c0-1.71-.32-2.97-.96-3.78-.64-.81-1.63-1.22-2.97-1.22h-.3v12.62c0,.68.03,1.13.1,1.35.07.22.19.35.38.41.2.09.48.15.82.19s.96.07,1.84.09v2.54h-11.78v-2.54c.62,0,1.15-.02,1.6-.06.45-.04.82-.11,1.11-.21.17-.06.29-.19.36-.41.07-.22.1-.66.1-1.32v-12.65h-.29c-1.35,0-2.35.41-3,1.23-.65.82-.97,2.08-.97,3.77h-2.66v-7.66h19.32Z"/>
      <path d="m619.97,146.69v-2.6h1.1c.77,0,1.26-.1,1.48-.29.22-.19.33-.67.33-1.43v-11.21c0-.77-.11-1.25-.33-1.44-.22-.19-.71-.28-1.48-.28h-1.1v-2.6h19.63v7.57h-2.6c-.16-1.16-.36-2.03-.58-2.62-.22-.59-.52-1.06-.88-1.4-.37-.35-.84-.59-1.42-.74s-1.61-.22-3.11-.22h-2.57v5.65h.49c1.1,0,1.83-.21,2.2-.62.37-.41.56-1.25.56-2.51h2.49v9.06h-2.49c-.03-1.39-.21-2.29-.55-2.7-.34-.41-1.07-.62-2.21-.62h-.49v6.4h2.66c2.18,0,3.65-.38,4.41-1.13.77-.75,1.26-2.24,1.48-4.47h2.6v8.19h-19.63Z"/>
      <path d="m663.83,139h3.14c-.08,2.74-.86,4.8-2.34,6.19s-3.65,2.09-6.5,2.09c-3.22,0-5.78-.95-7.7-2.86-1.91-1.91-2.87-4.47-2.87-7.67,0-1.6.25-3.03.74-4.29.49-1.26,1.25-2.4,2.27-3.41.98-.96,2.06-1.67,3.24-2.12,1.18-.45,2.54-.68,4.07-.68,1.08,0,2.09.16,3.04.47.95.31,1.86.8,2.74,1.45l.59-1.58h2.72v8.09h-2.9c-.12-1.74-.61-3.1-1.5-4.08-.88-.97-2.05-1.46-3.5-1.46-1.59,0-2.83.66-3.72,1.99s-1.34,3.19-1.34,5.59.44,4.31,1.32,5.63c.88,1.32,2.14,1.97,3.77,1.97,1.39,0,2.5-.47,3.33-1.41.83-.94,1.3-2.24,1.41-3.91Z"/>
      <path d="m673.95,146.69v-2.6h1.1c.77,0,1.26-.1,1.48-.29.22-.19.33-.67.33-1.43v-11.21c0-.77-.11-1.25-.33-1.44-.22-.19-.71-.28-1.48-.28h-1.1v-2.6h10.87v2.6h-.56c-.79,0-1.29.1-1.51.3-.22.2-.33.67-.33,1.42v3.87h6.42v-3.87c0-.75-.11-1.23-.33-1.42s-.72-.3-1.5-.3h-.56v-2.6h10.87v2.6h-1.1c-.78,0-1.28.1-1.5.3-.22.2-.33.67-.33,1.42v11.21c0,.75.11,1.23.33,1.42.22.2.72.3,1.5.3h1.1v2.6h-10.87v-2.6h.56c.78,0,1.28-.1,1.5-.3s.33-.67.33-1.42v-4.65h-6.42v4.65c0,.75.11,1.23.33,1.42.22.2.72.3,1.51.3h.56v2.6h-10.87Z"/>
      <path d="m703.46,146.69v-2.6h1.1c.77,0,1.26-.1,1.48-.29.22-.19.33-.67.33-1.43v-11.21c0-.77-.11-1.25-.33-1.44-.22-.19-.71-.28-1.48-.28h-1.1v-2.6h10.51c3.96,0,6.9.81,8.82,2.44,1.92,1.63,2.88,4.12,2.88,7.47s-.96,5.86-2.88,7.49c-1.92,1.63-4.86,2.45-8.81,2.45h-10.51Zm8.47-2.6h2.04c1.87,0,3.21-.57,4.02-1.7.81-1.13,1.21-3.01,1.21-5.64s-.41-4.57-1.21-5.66c-.81-1.1-2.2-1.65-4.16-1.65h-1.89v14.65Z"/>
      <path d="m732.65,136.77c0-3.28.99-5.85,2.97-7.72,1.98-1.87,4.71-2.81,8.19-2.81s6.18.93,8.16,2.8c1.98,1.87,2.97,4.45,2.97,7.73s-.99,5.85-2.96,7.71c-1.98,1.86-4.7,2.8-8.17,2.8s-6.21-.93-8.19-2.8c-1.98-1.87-2.97-4.44-2.97-7.7Zm6.45,0c0,2.71.38,4.68,1.13,5.93.75,1.24,1.95,1.86,3.58,1.86s2.82-.62,3.57-1.86c.75-1.24,1.13-3.22,1.13-5.93s-.38-4.68-1.13-5.93c-.75-1.24-1.94-1.86-3.57-1.86s-2.83.62-3.58,1.86c-.75,1.24-1.13,3.22-1.13,5.93Z"/>
      <path d="m767.59,142.36c0,.75.11,1.23.33,1.42s.72.3,1.51.3h.56v2.6h-8.5v-2.6h.97c.79,0,1.29-.1,1.51-.3s.33-.67.33-1.42v-11.21c0-.75-.11-1.23-.33-1.42s-.72-.3-1.51-.3h-.97v-2.6h10.42l3.45,12.23,3.64-12.23h10.33v2.6h-1.01c-.78,0-1.28.1-1.5.3-.22.2-.33.67-.33,1.42v11.21c0,.75.11,1.23.33,1.42.22.2.72.3,1.5.3h1.01v2.6h-10.42v-2.6h.59c.77,0,1.26-.1,1.48-.29.22-.19.33-.67.33-1.43v-12.4l-4.94,16.72h-3.99l-4.8-16.75v12.43Z"/>
    </g>
    <g>
      <path d="m311.07,40.17c-10.88,0-19.41,4.75-24.01,13.18-4.59-8.44-13.06-13.18-23.87-13.18-19.29,0-30.35,12.84-30.35,35.23v35.67c0,1.1.9,2,2,2h8.68c1.1,0,2-.9,2-2v-35.67c0-14.8,6.27-22.96,17.67-22.96s17.53,8.15,17.53,22.96v35.67c0,1.1.9,2,2,2h8.68c1.1,0,2-.9,2-2v-35.67c0-14.8,6.27-22.96,17.67-22.96s17.53,8.15,17.53,22.96v35.67c0,1.1.9,2,2,2h8.68c1.1,0,2-.9,2-2v-35.67c0-22.06-11.29-35.23-30.21-35.23Z"/>
      <path d="m382.85,40.28c-18.2,1.37-32.88,16.17-34.09,34.38-1.43,21.53,15.68,39.5,36.91,39.5,9.34,0,18.36-4.25,24.18-11.03v7.94c0,1.1.9,2,2,2h8.68c1.1,0,2-.9,2-2v-33.91c0-21.34-18.09-38.51-39.68-36.89Zm2.96,61.61c-13.71,0-24.45-10.86-24.45-24.72s10.74-24.72,24.45-24.72,24.18,10.86,24.18,24.72-10.62,24.72-24.18,24.72Z"/>
      <path d="m491.11,50.81c-6.21-6.74-14.89-10.63-24.18-10.63-21.23,0-38.34,17.97-36.91,39.5,1.21,18.21,15.89,33.01,34.09,34.38,21.59,1.62,39.68-15.55,39.68-36.89V17.88c0-1.6-1.79-2.55-3.11-1.66l-8.68,5.82c-.55.37-.89.99-.89,1.66v27.11Zm-24.18,51.08c-13.63,0-24.31-10.86-24.31-24.72s10.68-24.72,24.31-24.72,24.31,10.86,24.31,24.72-10.45,24.72-24.31,24.72Z"/>
      <path d="m582.74,89.85c-.11-.41-.08-.85.08-1.25,1.54-3.92,2.37-7.85,2.37-11.44,0-.93-.04-1.85-.11-2.76-.04-.61-.1-1.22-.18-1.82-1.28-10.39-6.9-19.46-14.98-25.33-.82-.61-1.68-1.19-2.56-1.72-5.34-3.24-11.56-5.18-18.22-5.35-.24,0-.49,0-.74,0-.33,0-.65,0-.97,0-.64.02-1.27.05-1.89.09-.83.06-1.64.14-2.45.26-.17.01-.35.04-.53.07-17.1,2.62-30.39,17-31.31,34.6-.03.65-.05,1.3-.05,1.96s.02,1.31.05,1.96c.65,12.46,7.49,23.3,17.5,29.5.18.11.36.22.54.32,5.53,3.31,12,5.21,18.9,5.21.22,0,.43,0,.65-.01.18,0,.35,0,.53-.01,3.66-.12,7.2-.82,10.52-2.03.2-.07.4-.15.59-.22.14-.06.28-.12.43-.18,3.67-1.46,7.04-3.57,9.95-6.23.11-.09.22-.18.32-.29.41-.38.8-.77,1.19-1.17v.09c.12-.11.24-.23.35-.34.64,10.85-6.59,20.86-18.01,23.92-4.49,1.2-9.02,1.04-13.23-.36-.69-.23-1.44-.1-1.99.37l-7.31,6.33c-1.08.94-.86,2.71.44,3.32,8.4,3.93,18.2,4.67,27.45,1.53,18.58-6.29,28.75-26.31,23.68-45.26l-1.01-3.77Zm-34.41,12.04c-13.71,0-24.45-10.86-24.45-24.72s10.74-24.72,24.45-24.72,24.17,10.86,24.17,24.72-10.62,24.72-24.17,24.72Z"/>
      <rect x="593.83" y="41.26" width="14" height="71.82"/>
      <path d="m600.83,18.47c-4.24,0-7.56,3.26-7.56,7.43s3.25,7.56,7.56,7.56,7.56-3.25,7.56-7.56-3.32-7.43-7.56-7.43Z"/>
      <path d="m672.6,91.72c-4.71,6.46-11.88,10.17-19.68,10.17-13.71,0-24.45-10.86-24.45-24.72s10.74-24.72,24.45-24.72c7.95,0,15.12,3.65,19.67,10.01l.6.84h11.98c.74,0,1.22-.77.9-1.43l-.69-1.43c-5.93-12.3-18.72-20.26-32.59-20.26-20.32,0-36.86,16.46-36.99,36.75-.13,20.17,16.29,36.96,36.46,37.23,14.34.2,27.18-7.65,33.39-20.38l.7-1.44c.32-.66-.16-1.44-.9-1.44h-11.91s-.34,0-.34,0l-.6.82Z"/>
      <path d="m726.88,40.28c-18.2,1.37-32.88,16.17-34.09,34.38-1.43,21.53,15.68,39.5,36.91,39.5,9.34,0,18.36-4.25,24.18-11.03v7.94c0,1.1.9,2,2,2h8.68c1.1,0,2-.9,2-2v-33.91c0-21.34-18.09-38.51-39.68-36.89Zm2.96,61.61c-13.71,0-24.45-10.86-24.45-24.72s10.74-24.72,24.45-24.72,24.18,10.86,24.18,24.72-10.62,24.72-24.18,24.72Z"/>
      <rect x="775.34" y="14.13" width="14" height="98.94"/>
    </g>
  </g>
  <path class="cls-1" d="m136.21,1.5c-1.82,0-3.56.72-4.85,2.01l-8.7,8.7-43.03,43.04L36.57,12.2,27.89,3.51c-1.29-1.29-3.03-2.01-4.85-2.01h-4.75C8.19,1.5,0,9.69,0,19.79v122.65C0,152.54,8.19,160.73,18.29,160.73h5.7c1.21,0,2.38-.48,3.23-1.34l9.36-9.36,43.06-43.04,25.87-25.87,20.79-20.8-.38,95.83c0,2.52,2.05,4.57,4.57,4.57h10.48c10.1,0,18.29-8.19,18.29-18.29V19.79c0-10.1-8.19-18.29-18.29-18.29h-4.74ZM29.49,107.89v-53.54l26.78,26.78-26.78,26.76Z"/>
</svg>
